<svg xmlns="http://www.w3.org/2000/svg" width="82" height="80" viewBox="0 0 82 80">
  <path d="M16.554 52.951c1.977-1.3 3.907-2.191 8.63-3.986 2.968-1.538 7.224-1.034 9.425-3.835.219-.336-.967-2.681-2.162-4.274-1.141-1.521-3.195-3.588-5.403-5.437-2.203-1.843-2.052-1.76-2.584-1.437-1.576.955-3.395 2.472-7.032 5.866-4.145 3.868-5.12 4.697-7.044 5.987-.923.62-2.78 1.61-3.6 1.921-.4.152-.518.279-.821.879-1.516 3.003-2.263 6.331-1.902 8.472.258 1.522 1.31 3.145 2.242 3.458.214.072.768.117 1.23.1 3.762-1.255 5.877-5.639 9.021-7.714zm9.429-8.077c-.584-.524-1.148-1-1.253-1.06-.223-.127-.402.038-1.182 1.096-.588.797-.758.846-1.425.405-.648-.428-2.067-1.85-2.067-2.07 0-.202 1.029-2.056 1.289-2.323.192-.197.571.037 1.955 1.208.521.44 1.02.787 1.11.77.088-.017.461-.471.828-1.01.54-.792.72-.978.946-.978.207 0 .613.328 1.55 1.252.697.689 1.268 1.321 1.268 1.406 0 .26-.902 1.69-1.252 1.985-.182.152-.415.276-.518.274-.103-.002-.665-.432-1.25-.955zm36.72 13.008a7.664 7.664 0 0 0 1.608-1.151c.674-.652.699-.696.699-1.235 0-1.436-.81-2.638-1.917-3.21-.84-.433-2.576-.415-2.827.225-.344 1.01-.168 2.548.483 4.227.396 1.024.734 1.619.92 1.619.07 0 .536-.214 1.035-.475zm-32.351 9.35c5.066-1.622 9.51-3.578 12.666-6.423.891-.834.983-.957.925-1.244-.13-.655-1.09-2.92-2.474-5.849-2.249-4.756-2.22-4.68-2.07-5.48.224-1.184.608-2.068.9-2.068.164 0 4.023 4.339 4.023 4.524 0 .252-.585.22-1.136-.06-.298-.152-.494-.195-.566-.123-.183.184.186 1.211 1.097 3.053 1.465 2.96 1.834 4.569 1.457 6.35-.335 1.577-1.025 2.754-2.52 4.3-4.336 3.653-7.201 5.671-12.666 7.756 0 0 .385 2.33 1.019 3.617.969 1.966 2.947 1.714 4.745.867 4.294-2.431 4.851-4.96 8.244-8.583 2.417-2.556 4.49-4.362 9.55-6.46 3.118-1.292 6.097-1.764 6.096-2.01 0-.112-.122-.782-.27-1.49-.567-2.693-.648-4.879-.239-6.43.444-1.68 1.477-3.084 2.496-3.389.593-.178 1.626-.168 2.074.019.2.083.59.405.868.714 1.41 1.569 2.138 4.277 1.731 6.445-.375 1.996-1.171 3.507-2.674 5.074l-.885.922.308.445c1.072 1.55 5.287 1.501 9.523-.41.038-.154-.143-2.4-.402-4.993-.479-4.78-.572-5.567-2.066-17.407a46742.906 46742.906 0 0 0-2.863-22.67c-.306-2.411-.556-4.803-.556-4.803l.942-2.128c.677 2.27 3.22 7.795 3.22 7.795s-.428-.226-.683-.503c-.255-.277-.583-.503-.583-.503s-.096.27-.05.81l.233 2.824c.448 5.426.54 6.242 3.805 33.324.527 4.368.522 4.295.395 5.927-.224 2.88-.83 4.568-2.09 5.829-1.21 1.212-3.165 1.956-5.189 1.977-1.315.013-2.17-.21-3.002-.783-.713-.49-1.665-1.649-2.31-2.807-.245-.443-.51-.805-.589-.805-.2 0-3.7.789-5.43 1.553-2.7 1.192-6.168 3.562-7.208 4.258-1.457.975-3.297 2.79-5.744 5.667-3.277 3.854-4.929 5.421-6.174 5.859-.739.26-1.763.276-2.631.042-.888-.238-1.647-.687-2.469-1.46-1.225-1.151-1.896-2.559-2.287-4.8-.095-.54-.13-1.22-.13-1.22s-.944.174-1.835.297c-2.35.323-5.269.325-6.766.004-2.844-.61-4.88-2.321-5.974-5.021-.585-1.445-.878-3.051-.98-5.375-.048-1.102-.11-1.593-.2-1.593-.138 0-.39.185-1.767 1.301-1.139.923-1.597 1.087-2.86 1.027-1.387-.066-2.22-.477-3.394-1.674C2.162 58.42 2.151 54.87 4.9 48.372c.099-.234.154-.467.122-.518-.032-.052-.438-.274-.902-.495C2.041 46.372.61 44.76.184 42.925c-.715-3.933.77-6.822 2.496-10.308-.195 3.467-2.65 7.966-.66 10.882.675 1 2.724 1.066 4.102.748.811-.187 3.054-1.548 4.938-2.997 4.848-3.955 6.136-5.013 10.489-9.038.42-.387.74-.765.711-.84-.044-.115-13.947-10.77-14.408-11.043l-.604-.496.016-1.565c.017-1.636.201-2.63.73-3.944l.236-.588 1.86-1.049C19.25 7.519 30.746 3.223 43.63.151c1-.238 2.348-.19 2.928.107.993.506 1.387 1.145 1.382 2.246-.01 2.389-1.94 5.611-6.023 10.06a119.172 119.172 0 0 0-3.055 3.472l-.372.442.06-.447c.032-.246.287-.9.566-1.454.793-1.571 1.218-2.1 5.347-6.638 1.349-1.483 1.871-2.272 1.871-2.827 0-.6-.233-1.108-.68-1.484l-.375-.316-1.905.056c-5.42.457-7.893 2.046-12.62 3.449-1.544.453-10.066 3.48-13.606 4.997-3.167 1.357-8.499 4.11-8.499 4.386 0 .134-.082.076 11.238 7.942 1.538 1.069 3.646 2.54 4.684 3.272 1.039.73 1.956 1.354 2.04 1.386.082.032.516-.093.963-.278 2.055-.849 3.924-1.252 5.81-1.252.657 0 1.222-.044 1.255-.096.078-.128-.33-1.786-1.145-4.657-1.66-5.838-1.878-8.502-.89-10.82.227-.531.417-.653.611-.39.264.355 2.64 5.343 2.577 5.407-.04.04-.276-.01-.526-.11-.81-.324-.828-.306-.742.741.108 1.308.572 3.517 1.028 4.892 1.005 3.03 2.37 4.898 4.876 6.67.822.58.866.635.994 1.208.186.83.087 2.81-.152 3.05-.161.16-.227.135-.745-.3-2.027-1.697-4.74-2.566-7.334-2.35-1.134.093-2.624.495-2.624.706 0 .077.59.616 1.312 1.198 3.77 3.039 8.28 6.86 11.304 9.579 1.946 1.75 3.665 2.94 4.247 2.94.24 0 .255-.035.198-.475a67.855 67.855 0 0 1-.182-1.817c-.19-2.137-.627-5.946-1.174-10.233l-.784-6.15c-.376-2.961-.784-6.555-.954-8.418l-.141-1.54c.152-.252.879-1.56.879-1.56l3.435 7.625s-.404-.168-.79-.481c-.387-.313-.735-.537-.773-.498-.102.102.58 5.948 1.535 13.166.38 2.876.989 7.9 1.128 9.319.153 1.556.23 1.678 1.143 1.787 1.132.135 3.072-.58 4.312-1.59.266-.218.534-.504.594-.637.138-.302-.303-4.26-1.313-11.805-.4-2.983-.773-5.776-.83-6.207-.056-.43-.328-2.468-.604-4.529-.276-2.06-.579-4.324-.672-5.032-.642-4.88-.909-6.752-1.305-9.155-.555-3.37-.571-3.715-.571-3.715s.763-2.45.86-2.45c.32 0 3.835 7.562 3.835 7.562l-1.885-.964s.018 3.205 2.08 18.315c1.371 10.055 2.065 15.472 2.064 16.112-.004 1.905-.679 3.798-1.742 4.888-.975.999-2.553 1.923-4.183 2.449-.338.109-.992.062-1.053.118-.067.063.358 4.949.351 7.16-.01 3.15-.386 13.386-.595 14.56-.25 1.408-.968 3.85-1.123 3.85-.05 0-.122-1.095-.16-2.433-.066-2.36.093-17.558-.272-20.943-.243-2.245-.177-2.075-.92-2.368-1.941-.764-3.664-2.008-6.507-4.7-5.004-4.74-6.504-6.048-8.888-7.75-.486-.347-.926-.63-.978-.63-.22 0-.058.285.56.987 1.174 1.338 1.912 2.402 2.534 3.653.78 1.567 1.06 2.655 1.06 4.105 0 2.84-.808 4.017-3.914 5.702-1.265.687-2.503 1.18-5.231 2.088-4.777 1.589-6.585 2.349-8.455 3.557-1.56 1.007-3.244 2.583-3.706 3.468-.332.637-.124 3.141.394 4.762.867 2.709 3.223 3.908 6.235 4.665 2.804.505 4.974-.046 8.124-.975.573-1.667 2.496-4.914 3.14-6.435-.296 1.85-1.494 4.445-1.835 5.885zm-.727-8.459c-.606-.608-.97-1.062-.97-1.21 0-.301.8-1.504 1.253-1.885.22-.185.41-.262.525-.212 1.412.886 1.906 1.64 2.696 2.438 0 .329-.616 1.104-1.466 2.257-.56.02-.903-.248-2.038-1.388zM3.297 31.535l-.166-.488c-.286-.84-.409-2.086-.29-2.94.29-2.11.838-2.994 2.992-5.9.493-.44 1.864-2.043 1.633-1.365-.02.029-.807 1.276-.827 1.305-.858 1.295-1.573 2.733-1.777 3.579-.176.73-.157 1.733.045 2.413.342 1.152.772 1.215 1.692.249.352-.37.73-.671.842-.671.245 0 .247.034.036.743-.775 1.698-3.073 4.975-4.18 3.075zM25.359 77.99c-.73-.313-1.002-1.662-.667-3.317.203-1 .334-1.33.527-1.33.087 0 .101.31.048 1.034-.082 1.12.021 1.633.415 2.069.295.325.535.318.857-.025.468-.498.612-.024.236.78-.396.848-.778 1.061-1.416.789zm31.997-3.826c-.64-1.585-1.358-2.303-2.603-2.604-.354-.085-.527-.21-.714-.511-.328-.532-.397-1.228-.174-1.763.167-.4.2-.42.543-.348.847.18 1.784 1.084 2.63 2.54.431.74.796 1.224.816 1.078l.156-1.583c.166-1.693.507-2.666 1.016-2.898.56-.255 1.338.145 1.716.881.18.348.157.524-.106.859-.257.327-.411.294-1.035-.225-.38-.316-.648-.333-.896-.058-.15.164-.186.452-.188 1.481-.003 1.962-.36 3.905-.716 3.905-.077 0-.278-.34-.445-.754zm-16.321-35.44s.964-.96 1.7-1.494c-.6-.113-1.483-1.343-1.396-1.72.104-.413.9-1.229 1.465-1.503.679-.328.947-.183.947.512 0 .334-.198.58-.198.58s.065-.245-.08-.377c-.489-.167-1.472.397-1.294.89.132.349.648.633 1.148.633.203 0 .716-.099 1.14-.22.423-.121.933-.367.933-.367.05.202.095.63.088.75-1.173 1.099-3.962 2.548-3.962 2.548l-.491-.232zM78.16 55.489c-.036-.176-.218-2.472-.404-5.104-.398-5.624-.563-7.35-1.014-10.591l-.668-4.809c-.184-1.322-.431-3.083-.55-3.913-.117-.83-.396-2.818-.618-4.418-.721-5.193-.933-5.949-.933-5.949l.709-3.24c1.452 2.425 4.052 7.877 4.052 7.877l-2.095-1.218s.622 5.73 1.235 9.774c1.227 8.09 1.579 11.665 1.579 16.02 0 2.936-.055 3.323-.692 4.866-.414 1.004-.513 1.121-.6.705zm-13.04-11.847c-.583-.523-1.146-.998-1.249-1.057-.154-.087-.33.075-.981.9-.436.553-.835 1.006-.885 1.006-.423 0-2.81-2.099-2.81-2.47 0-.255 1.281-2.335 1.44-2.337.24-.003.852.41 1.841 1.248.5.423.983.755 1.073.738.16-.031.495-.437 1.206-1.466.217-.313.447-.522.575-.522.28 0 1.013.62 2.077 1.757l.86.918-.474.798c-.566.954-1.036 1.45-1.367 1.442-.142-.003-.685-.401-1.305-.955zm-1.942-4.645c-.039-.192-.07-.71-.07-1.153-1.386-7.611-1.88-16.45-4.142-29.988-.182-.991-.331-2.253-.331-2.253l1.065-2.486 3.44 8.05-1.577-.974c1.212 9.303 1.828 14.153 2.43 18.778.367 2.532.434 5.322.176 7.293-.169 1.286-.651 3.083-.828 3.083-.051 0-.125-.158-.163-.35zm17.01-.81c-.597-.553-.698-.905-.694-2.419.003-1.31.136-2.244.517-3.634.18-.656.293-.225.186.708-.228 1.983-.235 2.425-.048 3.067.101.349.305.774.452.946l.268.311.275-.258c.24-.225.284-.235.345-.074.147.383.068 1.032-.162 1.323-.294.375-.754.387-1.138.03zM56.98 19.55c-.735-.448-1.072-1.895-.819-3.519.145-.932.437-1.957.558-1.957.047 0 .042.39-.012.867-.171 1.503.016 2.563.563 3.187.259.295.557.237.756-.147.21-.407.429-.38.48.061.06.517-.083 1.035-.387 1.396-.333.396-.626.425-1.14.112zM13.122 34.025c-.685-.364-.945-1.304-.776-2.808.17-1.528.843-3.765 1.131-3.765.145 0 .032 1.126-.206 2.043-.27 1.039-.248 1.953.059 2.588.3.62.445.7.908.51.47-.195.601-.04.448.527-.21.782-.97 1.22-1.564.905zm13.08-13.8c-.381-.484-.609-1.364-.604-2.337.005-.996.284-2.38.546-2.703.152-.189.16-.122.08.685-.164 1.627-.502 2.132.141 2.816.2.212.634.457.87.097.26-.397.517-.37.517.054 0 .461-.24.996-.615 1.367-.386.383-.646.389-.935.021z" fill="#FFF" fill-rule="nonzero"></path>
</svg>