<svg width="121" height="24" viewBox="0 0 121 24" fill="none" xmlns="http://www.w3.org/2000/svg">
<path d="M7.5007 2.34667C7.62273 2.49494 7.69749 2.6764 7.71532 2.86759C7.73314 3.05879 7.69322 3.25094 7.60071 3.41921C6.87797 4.74611 6.50053 6.23345 6.50311 7.74439C6.50311 12.7709 10.601 16.841 15.6515 16.841C16.3103 16.841 16.9516 16.7723 17.5679 16.641C17.7568 16.6001 17.9536 16.6158 18.1337 16.686C18.3138 16.7563 18.4692 16.878 18.5805 17.036C18.698 17.2003 18.7579 17.3989 18.7509 17.6008C18.7439 17.8026 18.6703 17.9966 18.5417 18.1523C17.5612 19.3567 16.3243 20.327 14.9212 20.9927C13.518 21.6583 11.984 22.0025 10.431 22C4.66794 22 0 17.3573 0 11.6371C0 7.33188 2.64275 3.63922 6.4056 2.07416C6.59304 1.99494 6.80112 1.97868 6.99859 2.02782C7.19606 2.07696 7.37225 2.18885 7.5007 2.34667Z" fill="url(#paint0_linear_101_16)"/>
<path d="M13.4938 5.93433C13.5117 5.8802 13.5463 5.83309 13.5925 5.7997C13.6387 5.76631 13.6943 5.74834 13.7513 5.74834C13.8084 5.74834 13.8639 5.76631 13.9102 5.7997C13.9564 5.83309 13.9909 5.8802 14.0089 5.93433L14.4927 7.38689C14.7089 8.03442 15.2165 8.54194 15.864 8.7582L17.3167 9.24197C17.3708 9.25989 17.4179 9.29442 17.4513 9.34065C17.4847 9.38688 17.5027 9.44245 17.5027 9.49948C17.5027 9.5565 17.4847 9.61208 17.4513 9.65831C17.4179 9.70453 17.3708 9.73906 17.3167 9.75699L15.864 10.2408C15.5447 10.3472 15.2545 10.5265 15.0164 10.7645C14.7784 11.0025 14.5991 11.2927 14.4927 11.6121L14.0089 13.0646C13.9909 13.1188 13.9564 13.1659 13.9102 13.1993C13.8639 13.2326 13.8084 13.2506 13.7513 13.2506C13.6943 13.2506 13.6387 13.2326 13.5925 13.1993C13.5463 13.1659 13.5117 13.1188 13.4938 13.0646L13.01 11.6121C12.9036 11.2927 12.7243 11.0025 12.4862 10.7645C12.2482 10.5265 11.958 10.3472 11.6386 10.2408L10.186 9.75699C10.1319 9.73906 10.0848 9.70453 10.0514 9.65831C10.018 9.61208 10 9.5565 10 9.49948C10 9.44245 10.018 9.38688 10.0514 9.34065C10.0848 9.29442 10.1319 9.25989 10.186 9.24197L11.6386 8.7582C11.958 8.6518 12.2482 8.47248 12.4862 8.23446C12.7243 7.99644 12.9036 7.70625 13.01 7.38689L13.4938 5.93433ZM17.3304 2.12292C17.3428 2.08733 17.3659 2.05646 17.3966 2.03462C17.4273 2.01278 17.464 2.00104 17.5017 2.00104C17.5394 2.00104 17.5761 2.01278 17.6068 2.03462C17.6375 2.05646 17.6606 2.08733 17.673 2.12292L17.9955 3.09046C18.1392 3.52298 18.478 3.86174 18.9106 4.0055L19.8782 4.32801C19.9138 4.34035 19.9446 4.36348 19.9665 4.39417C19.9883 4.42486 20 4.4616 20 4.49927C20 4.53694 19.9883 4.57368 19.9665 4.60437C19.9446 4.63506 19.9138 4.65819 19.8782 4.67053L18.9106 4.99304C18.6974 5.06395 18.5037 5.18357 18.3449 5.34241C18.186 5.50125 18.0664 5.69493 17.9955 5.90808L17.673 6.87562C17.6606 6.91121 17.6375 6.94208 17.6068 6.96392C17.5761 6.98577 17.5394 6.9975 17.5017 6.9975C17.464 6.9975 17.4273 6.98577 17.3966 6.96392C17.3659 6.94208 17.3428 6.91121 17.3304 6.87562L17.0079 5.90808C16.937 5.69493 16.8174 5.50125 16.6585 5.34241C16.4997 5.18357 16.306 5.06395 16.0928 4.99304L15.1252 4.67053C15.0896 4.65819 15.0588 4.63506 15.0369 4.60437C15.0151 4.57368 15.0033 4.53694 15.0033 4.49927C15.0033 4.4616 15.0151 4.42486 15.0369 4.39417C15.0588 4.36348 15.0896 4.34035 15.1252 4.32801L16.0928 4.0055C16.5253 3.86174 16.8641 3.52298 17.0079 3.09046L17.3304 2.12417V2.12292Z" fill="url(#paint1_linear_101_16)"/>
<path d="M29.0696 4.45455V19H26.4347V4.45455H29.0696ZM40.4315 10.9744L38.0877 11.2301C38.0214 10.9934 37.9054 10.7708 37.7397 10.5625C37.5787 10.3542 37.3609 10.1861 37.0863 10.0582C36.8117 9.9304 36.4755 9.86648 36.0778 9.86648C35.5427 9.86648 35.0929 9.98248 34.7283 10.2145C34.3685 10.4465 34.1909 10.7472 34.1957 11.1165C34.1909 11.4337 34.3069 11.6918 34.5437 11.8906C34.7852 12.0895 35.1829 12.2528 35.7369 12.3807L37.5977 12.7784C38.6299 13.0009 39.3969 13.3537 39.8988 13.8366C40.4054 14.3196 40.6611 14.9517 40.6658 15.733C40.6611 16.4195 40.4599 17.0256 40.0621 17.5511C39.6692 18.072 39.1223 18.4792 38.4215 18.7727C37.7208 19.0663 36.9158 19.2131 36.0067 19.2131C34.6715 19.2131 33.5967 18.9337 32.7823 18.375C31.9679 17.8116 31.4826 17.0279 31.3263 16.0241L33.8335 15.7827C33.9471 16.2751 34.1886 16.6468 34.5579 16.8977C34.9272 17.1487 35.4078 17.2741 35.9996 17.2741C36.6104 17.2741 37.1005 17.1487 37.4698 16.8977C37.8439 16.6468 38.0309 16.3366 38.0309 15.9673C38.0309 15.6548 37.9102 15.3968 37.6687 15.1932C37.4319 14.9896 37.0626 14.8333 36.5607 14.7244L34.6999 14.3338C33.6535 14.116 32.8794 13.7491 32.3775 13.233C31.8756 12.7121 31.627 12.054 31.6317 11.2585C31.627 10.5862 31.8093 10.0038 32.1786 9.51136C32.5527 9.0142 33.0711 8.63068 33.734 8.3608C34.4016 8.08617 35.171 7.94886 36.0423 7.94886C37.3207 7.94886 38.3268 8.22112 39.0607 8.76562C39.7994 9.31013 40.2563 10.0464 40.4315 10.9744ZM45.3569 4.45455V19H42.7859V4.45455H45.3569ZM51.1399 19.2202C50.4486 19.2202 49.826 19.0971 49.272 18.8509C48.7228 18.5999 48.2872 18.2306 47.9652 17.7429C47.648 17.2552 47.4893 16.6539 47.4893 15.9389C47.4893 15.3234 47.603 14.8144 47.8303 14.4119C48.0575 14.0095 48.3677 13.6875 48.7607 13.446C49.1536 13.2045 49.5964 13.0223 50.0888 12.8991C50.5859 12.7713 51.0997 12.679 51.63 12.6222C52.2692 12.5559 52.7876 12.4967 53.1854 12.4446C53.5831 12.3878 53.8719 12.3026 54.0518 12.1889C54.2365 12.0705 54.3288 11.8883 54.3288 11.642V11.5994C54.3288 11.0644 54.1702 10.6501 53.853 10.3565C53.5357 10.063 53.0788 9.91619 52.4822 9.91619C51.8525 9.91619 51.353 10.0535 50.9837 10.3281C50.6191 10.6027 50.3729 10.9271 50.245 11.3011L47.8445 10.9602C48.0339 10.2973 48.3464 9.74337 48.782 9.2983C49.2176 8.84848 49.7502 8.51231 50.38 8.28977C51.0097 8.0625 51.7057 7.94886 52.468 7.94886C52.9936 7.94886 53.5168 8.01042 54.0376 8.13352C54.5585 8.25663 55.0343 8.46023 55.4652 8.74432C55.8961 9.02367 56.2417 9.40483 56.5021 9.88778C56.7673 10.3707 56.8999 10.9744 56.8999 11.6989V19H54.4283V17.5014H54.343C54.1868 17.8045 53.9666 18.0885 53.6825 18.3537C53.4032 18.6141 53.0504 18.8248 52.6243 18.9858C52.2029 19.142 51.7081 19.2202 51.1399 19.2202ZM51.8075 17.331C52.3236 17.331 52.7711 17.2292 53.1499 17.0256C53.5286 16.8172 53.8198 16.5426 54.0234 16.2017C54.2318 15.8608 54.3359 15.4891 54.3359 15.0866V13.8011C54.2554 13.8674 54.1181 13.929 53.924 13.9858C53.7346 14.0426 53.5215 14.0923 53.2848 14.1349C53.0481 14.1776 52.8137 14.2154 52.5817 14.2486C52.3497 14.2817 52.1484 14.3101 51.978 14.3338C51.5945 14.3859 51.2512 14.4711 50.9482 14.5895C50.6451 14.7079 50.406 14.8736 50.2308 15.0866C50.0556 15.295 49.968 15.5649 49.968 15.8963C49.968 16.3698 50.1409 16.7273 50.4865 16.9688C50.8321 17.2102 51.2725 17.331 51.8075 17.331ZM59.4851 19V8.09091H61.9425V9.9446H62.0703C62.2976 9.3196 62.674 8.83191 63.1996 8.48153C63.7251 8.12642 64.3525 7.94886 65.0817 7.94886C65.8203 7.94886 66.4429 8.12879 66.9496 8.48864C67.4609 8.84375 67.8208 9.32907 68.0291 9.9446H68.1428C68.3842 9.33854 68.7914 8.85559 69.3643 8.49574C69.942 8.13116 70.6262 7.94886 71.4169 7.94886C72.4207 7.94886 73.2398 8.2661 73.8743 8.90057C74.5088 9.53504 74.826 10.4607 74.826 11.6776V19H72.2479V12.0753C72.2479 11.3982 72.0679 10.9034 71.7081 10.5909C71.3482 10.2737 70.9079 10.1151 70.3871 10.1151C69.7668 10.1151 69.2815 10.3092 68.9311 10.6974C68.5855 11.081 68.4126 11.5805 68.4126 12.196V19H65.8913V11.9688C65.8913 11.4053 65.7209 10.9555 65.38 10.6193C65.0438 10.2831 64.6035 10.1151 64.0589 10.1151C63.6896 10.1151 63.3535 10.2098 63.0504 10.3991C62.7474 10.5838 62.5059 10.8466 62.326 11.1875C62.1461 11.5237 62.0561 11.9167 62.0561 12.3665V19H59.4851ZM84.3768 19H81.5643L86.685 4.45455H89.9379L95.0657 19H92.2532L88.3683 7.4375H88.2546L84.3768 19ZM84.4691 13.2969H92.1396V15.4134H84.4691V13.2969ZM96.8679 23.0909V8.09091H99.3963V9.89489H99.5455C99.678 9.62973 99.8651 9.34801 100.107 9.04972C100.348 8.74669 100.675 8.48864 101.087 8.27557C101.499 8.05777 102.024 7.94886 102.663 7.94886C103.506 7.94886 104.266 8.1643 104.943 8.59517C105.625 9.02131 106.165 9.65341 106.562 10.4915C106.965 11.3248 107.166 12.3475 107.166 13.5597C107.166 14.7576 106.97 15.7756 106.577 16.6136C106.184 17.4517 105.649 18.0909 104.972 18.5312C104.295 18.9716 103.527 19.1918 102.67 19.1918C102.045 19.1918 101.527 19.0876 101.115 18.8793C100.703 18.6709 100.372 18.42 100.121 18.1264C99.8745 17.8281 99.6828 17.5464 99.5455 17.2812H99.4389V23.0909H96.8679ZM99.3892 13.5455C99.3892 14.2509 99.4886 14.8688 99.6875 15.3991C99.8911 15.9295 100.182 16.3437 100.561 16.642C100.945 16.9356 101.409 17.0824 101.953 17.0824C102.521 17.0824 102.997 16.9309 103.381 16.6278C103.764 16.3201 104.053 15.901 104.247 15.3707C104.446 14.8357 104.545 14.2273 104.545 13.5455C104.545 12.8684 104.448 12.267 104.254 11.7415C104.06 11.2159 103.771 10.804 103.388 10.5057C103.004 10.2074 102.526 10.0582 101.953 10.0582C101.404 10.0582 100.938 10.2027 100.554 10.4915C100.17 10.7803 99.8793 11.1851 99.6804 11.706C99.4863 12.2268 99.3892 12.84 99.3892 13.5455ZM109.368 23.0909V8.09091H111.896V9.89489H112.045C112.178 9.62973 112.365 9.34801 112.607 9.04972C112.848 8.74669 113.175 8.48864 113.587 8.27557C113.999 8.05777 114.524 7.94886 115.163 7.94886C116.006 7.94886 116.766 8.1643 117.443 8.59517C118.125 9.02131 118.665 9.65341 119.062 10.4915C119.465 11.3248 119.666 12.3475 119.666 13.5597C119.666 14.7576 119.47 15.7756 119.077 16.6136C118.684 17.4517 118.149 18.0909 117.472 18.5312C116.795 18.9716 116.027 19.1918 115.17 19.1918C114.545 19.1918 114.027 19.0876 113.615 18.8793C113.203 18.6709 112.872 18.42 112.621 18.1264C112.375 17.8281 112.183 17.5464 112.045 17.2812H111.939V23.0909H109.368ZM111.889 13.5455C111.889 14.2509 111.989 14.8688 112.188 15.3991C112.391 15.9295 112.682 16.3437 113.061 16.642C113.445 16.9356 113.909 17.0824 114.453 17.0824C115.021 17.0824 115.497 16.9309 115.881 16.6278C116.264 16.3201 116.553 15.901 116.747 15.3707C116.946 14.8357 117.045 14.2273 117.045 13.5455C117.045 12.8684 116.948 12.267 116.754 11.7415C116.56 11.2159 116.271 10.804 115.888 10.5057C115.504 10.2074 115.026 10.0582 114.453 10.0582C113.904 10.0582 113.438 10.2027 113.054 10.4915C112.67 10.7803 112.379 11.1851 112.18 11.706C111.986 12.2268 111.889 12.84 111.889 13.5455Z" fill="url(#paint2_linear_101_16)"/>
<defs>
<linearGradient id="paint0_linear_101_16" x1="-0.78131" y1="1.16555" x2="19.1772" y2="19.8781" gradientUnits="userSpaceOnUse">
<stop stop-color="#14B8A6"/>
<stop offset="1" stop-color="#0D9488"/>
</linearGradient>
<linearGradient id="paint1_linear_101_16" x1="9.58333" y1="1.53168" x2="20.7554" y2="11.4628" gradientUnits="userSpaceOnUse">
<stop stop-color="#14B8A6"/>
<stop offset="1" stop-color="#0D9488"/>
</linearGradient>
<linearGradient id="paint2_linear_101_16" x1="25" y1="0" x2="118.467" y2="31.5124" gradientUnits="userSpaceOnUse">
<stop stop-color="#14B8A6"/>
<stop offset="1" stop-color="#0D9488"/>
</linearGradient>
</defs>
</svg>
