<svg width="20" height="20" viewBox="0 0 20 20" fill="none" xmlns="http://www.w3.org/2000/svg">
<path d="M7.5007 0.346667C7.62273 0.494939 7.69749 0.676396 7.71532 0.867592C7.73314 1.05879 7.69322 1.25094 7.60071 1.41921C6.87797 2.74611 6.50053 4.23345 6.50311 5.74439C6.50311 10.7709 10.601 14.841 15.6515 14.841C16.3103 14.841 16.9516 14.7723 17.5679 14.641C17.7568 14.6001 17.9536 14.6158 18.1337 14.686C18.3138 14.7563 18.4692 14.878 18.5805 15.036C18.698 15.2003 18.7579 15.3989 18.7509 15.6008C18.7439 15.8026 18.6703 15.9966 18.5417 16.1523C17.5612 17.3567 16.3243 18.327 14.9212 18.9927C13.518 19.6583 11.984 20.0025 10.431 20C4.66794 20 0 15.3573 0 9.63706C0 5.33188 2.64275 1.63922 6.4056 0.0741555C6.59304 -0.00505797 6.80112 -0.0213162 6.99859 0.0278232C7.19606 0.0769625 7.37225 0.188846 7.5007 0.346667Z" fill="url(#paint0_linear_102_13)"/>
<path d="M13.4938 3.93433C13.5117 3.8802 13.5463 3.83309 13.5925 3.7997C13.6387 3.76631 13.6943 3.74834 13.7513 3.74834C13.8084 3.74834 13.8639 3.76631 13.9102 3.7997C13.9564 3.83309 13.9909 3.8802 14.0089 3.93433L14.4927 5.38689C14.7089 6.03442 15.2165 6.54194 15.864 6.7582L17.3167 7.24197C17.3708 7.25989 17.4179 7.29442 17.4513 7.34065C17.4847 7.38688 17.5027 7.44245 17.5027 7.49948C17.5027 7.5565 17.4847 7.61208 17.4513 7.65831C17.4179 7.70453 17.3708 7.73906 17.3167 7.75699L15.864 8.24076C15.5447 8.34716 15.2545 8.52648 15.0164 8.7645C14.7784 9.00252 14.5991 9.29271 14.4927 9.61207L14.0089 11.0646C13.9909 11.1188 13.9564 11.1659 13.9102 11.1993C13.8639 11.2326 13.8084 11.2506 13.7513 11.2506C13.6943 11.2506 13.6387 11.2326 13.5925 11.1993C13.5463 11.1659 13.5117 11.1188 13.4938 11.0646L13.01 9.61207C12.9036 9.29271 12.7243 9.00252 12.4862 8.7645C12.2482 8.52648 11.958 8.34716 11.6386 8.24076L10.186 7.75699C10.1319 7.73906 10.0848 7.70453 10.0514 7.65831C10.018 7.61208 10 7.5565 10 7.49948C10 7.44245 10.018 7.38688 10.0514 7.34065C10.0848 7.29442 10.1319 7.25989 10.186 7.24197L11.6386 6.7582C11.958 6.6518 12.2482 6.47248 12.4862 6.23446C12.7243 5.99644 12.9036 5.70625 13.01 5.38689L13.4938 3.93433ZM17.3304 0.122921C17.3428 0.0873274 17.3659 0.0564631 17.3966 0.0346193C17.4273 0.0127755 17.464 0.0010376 17.5017 0.0010376C17.5394 0.0010376 17.5761 0.0127755 17.6068 0.0346193C17.6375 0.0564631 17.6606 0.0873274 17.673 0.122921L17.9955 1.09046C18.1392 1.52298 18.478 1.86174 18.9106 2.0055L19.8782 2.32801C19.9138 2.34035 19.9446 2.36348 19.9665 2.39417C19.9883 2.42486 20 2.4616 20 2.49927C20 2.53694 19.9883 2.57368 19.9665 2.60437C19.9446 2.63506 19.9138 2.65819 19.8782 2.67053L18.9106 2.99304C18.6974 3.06395 18.5037 3.18357 18.3449 3.34241C18.186 3.50125 18.0664 3.69493 17.9955 3.90808L17.673 4.87562C17.6606 4.91121 17.6375 4.94208 17.6068 4.96392C17.5761 4.98577 17.5394 4.9975 17.5017 4.9975C17.464 4.9975 17.4273 4.98577 17.3966 4.96392C17.3659 4.94208 17.3428 4.91121 17.3304 4.87562L17.0079 3.90808C16.937 3.69493 16.8174 3.50125 16.6585 3.34241C16.4997 3.18357 16.306 3.06395 16.0928 2.99304L15.1252 2.67053C15.0896 2.65819 15.0588 2.63506 15.0369 2.60437C15.0151 2.57368 15.0033 2.53694 15.0033 2.49927C15.0033 2.4616 15.0151 2.42486 15.0369 2.39417C15.0588 2.36348 15.0896 2.34035 15.1252 2.32801L16.0928 2.0055C16.5253 1.86174 16.8641 1.52298 17.0079 1.09046L17.3304 0.124171V0.122921Z" fill="url(#paint1_linear_102_13)"/>
<defs>
<linearGradient id="paint0_linear_102_13" x1="-0.78131" y1="-0.834452" x2="19.1772" y2="17.8781" gradientUnits="userSpaceOnUse">
<stop stop-color="#14B8A6"/>
<stop offset="1" stop-color="#0D9488"/>
</linearGradient>
<linearGradient id="paint1_linear_102_13" x1="9.58333" y1="-0.468324" x2="20.7554" y2="9.46281" gradientUnits="userSpaceOnUse">
<stop stop-color="#14B8A6"/>
<stop offset="1" stop-color="#0D9488"/>
</linearGradient>
</defs>
</svg>
